<svg width="52" height="21" viewBox="0 0 52 21" fill="none" xmlns="http://www.w3.org/2000/svg">
<path fill-rule="evenodd" clip-rule="evenodd" d="M2 0C0.895431 0 0 0.895432 0 2V18.6747C0 19.7793 0.895432 20.6747 2 20.6747H50C51.1046 20.6747 52 19.7793 52 18.6747V2C52 0.895431 51.1046 0 50 0H2ZM14.302 13.4699H9.19936V5.4856H14.302V6.62971H10.4658V8.83227H13.4576V9.97637H10.4658V12.3319H14.302V13.4699ZM21.1421 13.4699H19.8757V9.9519C19.8757 9.50731 19.792 9.19936 19.6248 9.02805C19.4576 8.85674 19.2149 8.77108 18.8967 8.77108C18.4277 8.77108 18.0443 8.96075 17.7465 9.34008C17.4528 9.71941 17.306 10.2435 17.306 10.9125V13.4699H16.0395V7.7677H17.306V9.19936C17.4324 8.70582 17.667 8.32241 18.0096 8.04913C18.3522 7.77177 18.7744 7.63309 19.2761 7.63309C19.8593 7.63309 20.3162 7.82276 20.6466 8.20209C20.9769 8.58142 21.1421 9.16469 21.1421 9.9519V13.4699ZM27.6336 13.0844C28.0414 12.7296 28.278 12.2524 28.3433 11.6528L27.2298 11.4019C27.1971 11.6956 27.0931 11.9464 26.9177 12.1545C26.7423 12.3625 26.4752 12.4665 26.1162 12.4665C25.8226 12.4665 25.586 12.3768 25.4065 12.1973C25.2271 12.0178 25.1373 11.7445 25.1373 11.3774V8.9118H27.5296V7.7677H25.1373V5.4856H23.8709V7.7677H22.5799V8.9118H23.8709V11.3774C23.8709 11.7038 23.9239 12.0056 24.0299 12.2829C24.1401 12.5562 24.293 12.7908 24.4888 12.9865C24.6846 13.1823 24.9212 13.3353 25.1985 13.4454C25.4759 13.5555 25.7818 13.6106 26.1162 13.6106C26.724 13.6106 27.2298 13.4352 27.6336 13.0844ZM30.5826 11.1021C30.6437 11.4937 30.8293 11.82 31.1393 12.081C31.4534 12.338 31.8735 12.4665 32.3997 12.4665C32.8116 12.4665 33.1685 12.4033 33.4704 12.2768C33.7763 12.1463 34.0393 11.975 34.2596 11.7629L34.9081 12.6562C34.541 13.0232 34.1515 13.2741 33.7396 13.4087C33.3317 13.5433 32.885 13.6106 32.3997 13.6106C31.9591 13.6106 31.5492 13.5372 31.1699 13.3903C30.7906 13.2435 30.4622 13.0396 30.1849 12.7785C29.9075 12.5134 29.6893 12.1993 29.5302 11.8363C29.3752 11.4733 29.2977 11.0695 29.2977 10.6249C29.2977 10.1926 29.3691 9.79487 29.5119 9.43185C29.6587 9.06476 29.8626 8.74865 30.1237 8.48353C30.3888 8.21433 30.7049 8.00631 31.072 7.85947C31.4391 7.70855 31.8449 7.63309 32.2895 7.63309C32.7504 7.63309 33.1685 7.71263 33.5438 7.87171C33.919 8.0267 34.2392 8.25307 34.5043 8.55083C34.7735 8.84858 34.9836 9.21364 35.1345 9.64599C35.2854 10.0743 35.3609 10.5596 35.3609 11.1021H30.5826ZM33.9292 9.98861C33.864 9.62152 33.6743 9.32784 33.3602 9.10759C33.0462 8.88325 32.6893 8.77108 32.2895 8.77108C31.8898 8.77108 31.5309 8.88325 31.2127 9.10759C30.8946 9.32784 30.7029 9.62152 30.6376 9.98861H33.9292ZM41.3567 8.95463C41.5158 8.99134 41.6708 9.0464 41.8217 9.11982L42.2989 7.88394C42.1154 7.79013 41.9278 7.72487 41.7361 7.68816C41.5444 7.65145 41.3608 7.63309 41.1854 7.63309C40.6266 7.63309 40.1433 7.75138 39.7354 7.98795C39.3316 8.22452 39.0257 8.62833 38.8177 9.19936V7.7677H36.2603V8.9118H37.5512V12.3319H36.2603V13.4699H40.0964V12.3319H38.8177V10.9125C38.8177 10.5698 38.8666 10.2741 38.9645 10.0253C39.0665 9.77243 39.2072 9.56237 39.3867 9.39514C39.5661 9.22791 39.7782 9.10351 40.023 9.02193C40.2718 8.93628 40.5369 8.89345 40.8183 8.89345C41.0223 8.89345 41.2017 8.91384 41.3567 8.95463Z" fill="white"/>
</svg>
