<svg width="931" height="681" viewBox="0 0 931 681" fill="none" xmlns="http://www.w3.org/2000/svg">
<g filter="url(#filter0_df_1_14)">
<path d="M695.439 -456.192C777.04 -428.219 839.69 -347.531 887.757 -271.518C935.35 -195.275 968.115 -122.999 978.197 -47.9357C988.048 26.6523 975.214 104.029 947.7 186.186C920.429 267.636 878.72 353.161 812.601 379.989C746.252 406.342 655.492 373.999 561.983 356.515C469.179 339.276 373.627 336.895 299.044 291.99C223.756 246.839 168.963 159.395 169.147 72.8765C169.331 -13.6418 224.249 -98.5277 273.973 -183.242C323.928 -267.482 368.215 -351.319 440.513 -405.255C513.055 -459.898 613.838 -484.164 695.439 -456.192Z" fill="#FF0066"/>
</g>
<defs>
<filter id="filter0_df_1_14" x="0.14653" y="-676.885" width="1312.35" height="1357.83" filterUnits="userSpaceOnUse" color-interpolation-filters="sRGB">
<feFlood flood-opacity="0" result="BackgroundImageFix"/>
<feColorMatrix in="SourceAlpha" type="matrix" values="0 0 0 0 0 0 0 0 0 0 0 0 0 0 0 0 0 0 127 0" result="hardAlpha"/>
<feOffset dx="81" dy="41"/>
<feGaussianBlur stdDeviation="125"/>
<feComposite in2="hardAlpha" operator="out"/>
<feColorMatrix type="matrix" values="0 0 0 0 1 0 0 0 0 0.00392157 0 0 0 0 0.4 0 0 0 1 0"/>
<feBlend mode="normal" in2="BackgroundImageFix" result="effect1_dropShadow_1_14"/>
<feBlend mode="normal" in="SourceGraphic" in2="effect1_dropShadow_1_14" result="shape"/>
<feGaussianBlur stdDeviation="25" result="effect2_foregroundBlur_1_14"/>
</filter>
</defs>
</svg>
