<svg width="964" height="674" viewBox="0 0 964 674" fill="none" xmlns="http://www.w3.org/2000/svg">
<g filter="url(#filter0_df_1_12)">
<path d="M-466.179 305.488C-371.524 250.319 -211.27 289.173 -47.4338 301.302C115.54 313.089 282.406 297.366 391.381 364.967C499.492 432.226 550.022 582.023 585.504 729.501C620.433 875.853 640.624 1019.1 595.786 1137.54C550.949 1255.99 439.91 1350.07 313.406 1435.31C187.455 1521.68 45.7295 1600 -91.0148 1584.97C-227.759 1569.93 -358.97 1462.67 -450.492 1348.41C-542.325 1234.94 -593.607 1114.8 -614.482 998.517C-635.357 882.233 -625.824 769.802 -607.116 639.212C-588.408 508.622 -560.524 359.872 -466.179 305.488Z" fill="#8A53FF"/>
</g>
<defs>
<filter id="filter0_df_1_12" x="-784.295" y="0.67947" width="1747.9" height="1810.15" filterUnits="userSpaceOnUse" color-interpolation-filters="sRGB">
<feFlood flood-opacity="0" result="BackgroundImageFix"/>
<feColorMatrix in="SourceAlpha" type="matrix" values="0 0 0 0 0 0 0 0 0 0 0 0 0 0 0 0 0 0 127 0" result="hardAlpha"/>
<feOffset dx="92" dy="-26"/>
<feGaussianBlur stdDeviation="125"/>
<feComposite in2="hardAlpha" operator="out"/>
<feColorMatrix type="matrix" values="0 0 0 0 0.541176 0 0 0 0 0.32549 0 0 0 0 1 0 0 0 1 0"/>
<feBlend mode="normal" in2="BackgroundImageFix" result="effect1_dropShadow_1_12"/>
<feBlend mode="normal" in="SourceGraphic" in2="effect1_dropShadow_1_12" result="shape"/>
<feGaussianBlur stdDeviation="25" result="effect2_foregroundBlur_1_12"/>
</filter>
</defs>
</svg>
