<?xml version="1.0" encoding="UTF-8"?><svg id="b" xmlns="http://www.w3.org/2000/svg" viewBox="0 0 52 20.79"><defs><style>.d{fill:#fff;}</style></defs><g id="c"><path class="d" d="m29.23,12.06l-2.14-.97h-.79v-3.29c0-.17-.05-.31-.16-.42s-.25-.16-.42-.16-.31.05-.42.16c-.11.11-.16.25-.16.42v4.88c0,.45-.42.79-.86.69l-1.37-.29-.33.33,2.26,2.26c.13.13.31.21.5.21h3.17c.34,0,.64-.25.7-.59l.43-2.47c.05-.32-.11-.63-.4-.76Z"/><path class="d" d="m49.45,0H2.55C1.14,0,0,1.14,0,2.55v15.69c0,1.41,1.14,2.55,2.55,2.55h46.9c1.41,0,2.55-1.14,2.55-2.55V2.55c0-1.41-1.14-2.55-2.55-2.55Zm-18.92,12.65l-.52,3.14c-.05.28-.18.51-.4.69-.22.18-.47.27-.75.27h-3.7c-.16,0-.31-.03-.46-.09-.14-.06-.27-.15-.38-.25l-2.97-2.97.81-.83c.13-.14.29-.24.45-.31.17-.07.34-.08.53-.04l1.13.26v-4.71c0-.4.14-.75.42-1.02s.62-.42,1.02-.42.75.14,1.02.42c.28.28.42.62.42,1.02v2.6h.38s.09,0,.13.01c.04,0,.09.02.14.04l2.12.95c.23.11.4.28.51.51.11.23.14.48.09.73Zm1.24-6.11c0,.39-.32.71-.71.71h-2.05v-.71h1.73c-.66-.58-1.4-1.03-2.22-1.36-.82-.33-1.67-.49-2.56-.49s-1.72.16-2.53.49c-.81.33-1.54.78-2.21,1.36h1.73v.71h-2.04c-.39,0-.71-.32-.71-.71v-2.12h.71v1.47c.7-.61,1.48-1.07,2.35-1.38s1.76-.47,2.7-.47,1.84.16,2.7.47c.87.31,1.66.77,2.37,1.38v-1.47h.72v2.12Z"/></g></svg>