<svg width="18" height="24" viewBox="0 0 18 24" fill="none" xmlns="http://www.w3.org/2000/svg">
<path d="M10.25 24C8.43333 24 6.86667 23.5333 5.55 22.6C4.23333 21.6667 3.28333 20.425 2.7 18.875L0.15 12.2C0.1 12.0667 0.0624999 11.9292 0.0374999 11.7875C0.0124999 11.6458 0 11.5 0 11.35C0 10.9167 0.166667 10.5333 0.5 10.2C0.833333 9.86667 1.21667 9.7 1.65 9.7C1.75 9.7 1.84583 9.70417 1.9375 9.7125C2.02917 9.72083 2.11667 9.74167 2.2 9.775L2.95 9.975C3.28333 10.0583 3.54583 10.1708 3.7375 10.3125C3.92917 10.4542 4.14167 10.7083 4.375 11.075V4.125C4.375 3.54167 4.58333 3.04167 5 2.625C5.41667 2.20833 5.91667 2 6.5 2C6.7 2 6.88333 2.02917 7.05 2.0875C7.21667 2.14583 7.36667 2.225 7.5 2.325V2.125C7.5 1.54167 7.7125 1.04167 8.1375 0.625C8.5625 0.208333 9.06667 0 9.65 0C10.1833 0 10.6417 0.175 11.025 0.525C11.4083 0.875 11.6417 1.28333 11.725 1.75C11.7917 1.66667 11.9333 1.60417 12.15 1.5625C12.3667 1.52083 12.5667 1.5 12.75 1.5C13.3833 1.5 13.8958 1.7375 14.2875 2.2125C14.6792 2.6875 14.875 3.21667 14.875 3.8V4.775C14.9917 4.675 15.1417 4.60417 15.325 4.5625C15.5083 4.52083 15.6917 4.5 15.875 4.5C16.4583 4.5 16.9583 4.70833 17.375 5.125C17.7917 5.54167 18 6.04167 18 6.625V16.25C18 18.5333 17.2792 20.3958 15.8375 21.8375C14.3958 23.2792 12.5333 24 10.25 24ZM10.25 22.5C12.1167 22.5 13.625 21.9208 14.775 20.7625C15.925 19.6042 16.5 18.1 16.5 16.25V6.625C16.5 6.44167 16.4417 6.29167 16.325 6.175C16.2083 6.05833 16.0583 6 15.875 6C15.6917 6 15.5417 6.05833 15.425 6.175C15.3083 6.29167 15.25 6.44167 15.25 6.625V12H13.375V3.625C13.375 3.44167 13.3167 3.29167 13.2 3.175C13.0833 3.05833 12.9333 3 12.75 3C12.5667 3 12.4167 3.05833 12.3 3.175C12.1833 3.29167 12.125 3.44167 12.125 3.625V12H10.25V2.125C10.25 1.94167 10.1917 1.79167 10.075 1.675C9.95833 1.55833 9.80833 1.5 9.625 1.5C9.44167 1.5 9.29167 1.55833 9.175 1.675C9.05833 1.79167 9 1.94167 9 2.125V12H7.125V4.125C7.125 3.94167 7.06667 3.79167 6.95 3.675C6.83333 3.55833 6.68333 3.5 6.5 3.5C6.31667 3.5 6.16667 3.55833 6.05 3.675C5.93333 3.79167 5.875 3.94167 5.875 4.125V14.75H4.425L3.5 12.4C3.33333 11.9667 3.12083 11.6875 2.8625 11.5625C2.60417 11.4375 2.26667 11.325 1.85 11.225C1.68333 11.1917 1.57083 11.2083 1.5125 11.275C1.45417 11.3417 1.45833 11.45 1.525 11.6L4.125 18.35C4.60833 19.6 5.36667 20.6042 6.4 21.3625C7.43333 22.1208 8.71667 22.5 10.25 22.5Z" fill="white"/>
</svg>
