<svg width="76" height="81" viewBox="0 0 76 81" fill="none" xmlns="http://www.w3.org/2000/svg">
<path d="M62.2307 10.7472C69.6095 16.9149 75.0923 25.0002 75.6047 33.2411C76.0659 41.4301 71.6079 49.6709 67.9185 57.2898C64.2291 64.8569 61.3083 71.802 56.1329 75.8447C51.0087 79.8355 43.5787 80.9757 36.661 80.2501C29.6921 79.5764 23.2869 77.1404 16.5743 73.616C9.81035 70.0916 2.84147 65.5307 0.740558 59.3112C-1.36035 53.0917 1.45794 45.1618 3.55885 36.61C5.71101 28.0063 7.19702 18.7289 12.5262 11.9393C17.8041 5.09784 26.9763 0.692361 36.2511 0.536873C45.4746 0.433215 54.8006 4.57955 62.2307 10.7472Z" fill="url(#paint0_linear_1_93)"/>
<defs>
<linearGradient id="paint0_linear_1_93" x1="-0.000854492" y1="40.495" x2="73.4971" y2="44.0629" gradientUnits="userSpaceOnUse">
<stop stop-color="#67B6FF"/>
<stop offset="1" stop-color="#67B6FF"/>
</linearGradient>
</defs>
</svg>
