<?xml version="1.0" encoding="UTF-8"?><svg id="b" xmlns="http://www.w3.org/2000/svg" viewBox="0 0 52 21"><defs><style>.d{fill:#fff;fill-rule:evenodd;}</style></defs><g id="c"><path class="d" d="m32.08,11.61c0,.51-.16.88-.48,1.12-.32.24-.73.36-1.22.36s-.86-.11-1.14-.33c-.28-.22-.47-.51-.58-.88l.72-.27c.08.23.22.42.41.55.19.14.39.2.59.2.26,0,.47-.06.62-.19.16-.13.24-.32.24-.56,0-.26-.11-.46-.32-.59-.04-.03-.1-.04-.14-.07h-4.3c-.07.07-.12.14-.2.21-.18.18-.38.37-.6.56-.23.2-.43.38-.62.54v.04h2.23v.78h-3.34v-.8c.31-.3.59-.56.83-.78.18-.16.39-.36.61-.56h-3.3v2.13h-.86v-2.13h-2.19v4.88h13.93v-4.88h-1.05c.1.19.17.4.17.66Z"/><path class="d" d="m19.04,10.05h2.19v-1.03l-.86.57-.43-.68,1.49-1h.66v2.13h4.13c.09-.16.15-.35.15-.58,0-.19-.07-.35-.2-.49-.14-.14-.33-.2-.57-.2-.19,0-.37.05-.53.16-.16.11-.28.24-.35.39l-.78-.37c.14-.31.34-.57.62-.76.28-.19.62-.29,1.03-.29.48,0,.87.15,1.17.44s.45.66.45,1.1c0,.22-.04.42-.11.6h2.81v-.04h.29c.26,0,.47-.04.62-.12.16-.08.24-.24.24-.47,0-.2-.06-.37-.19-.48-.13-.12-.3-.17-.5-.17-.16,0-.32.04-.46.13s-.27.21-.38.36l-.7-.37c.18-.31.4-.55.68-.72.27-.16.56-.25.86-.25.44,0,.8.12,1.1.36s.44.56.44.97c0,.3-.06.54-.19.73-.02.03-.05.05-.08.08h1.34v-4.88h-13.93v4.88Z"/><path class="d" d="m50,0H2C.9,0,0,.9,0,2v17c0,1.1.9,2,2,2h48c1.1,0,2-.9,2-2V2c0-1.1-.9-2-2-2Zm-11.6,10.95h-4.21v4.88c0,.33-.12.61-.37.86s-.53.37-.86.37h-13.93c-.33,0-.61-.12-.86-.37-.25-.25-.37-.53-.37-.86v-4.88h-4.21v-.89h4.21v-4.88c0-.33.12-.61.37-.86s.53-.37.86-.37h13.93c.33,0,.61.12.86.37.25.25.37.53.37.86v4.88h4.21v.89Z"/></g></svg>