<?xml version="1.0" encoding="UTF-8"?><svg id="a" xmlns="http://www.w3.org/2000/svg" xmlns:xlink="http://www.w3.org/1999/xlink" viewBox="0 0 500 500"><defs><style>.c{fill:#fff;}.d{fill:url(#b);}</style><linearGradient id="b" x1="241.95" y1="-4.91" x2="258.05" y2="504.91" gradientUnits="userSpaceOnUse"><stop offset="0" stop-color="#8627ff"/><stop offset="1" stop-color="#8691ff"/></linearGradient></defs><rect class="d" width="500" height="500" rx="87.97" ry="87.97"/><path class="c" d="m320.2,363.28l-35.23-87.67c.06-.04.11-.08.16-.13.16-.13.32-.25.49-.39,3.94-3.31,6.45-8.27,6.45-13.82,0-9.95-8.07-18.01-18.01-18.01-4.12,0-7.91,1.38-10.95,3.71-4.68,3.7-9.95,6.8-15.76,9.13-15.75,6.34-33.03,6.15-48.65-.52-15.61-6.66-27.7-19.01-34.03-34.77-6.34-15.75-6.15-33.03.52-48.65,6.66-15.61,19.01-27.7,34.77-34.03,7.74-3.12,15.74-4.58,23.61-4.58,12.15,0,24,3.51,34.13,9.92.11.06.2.13.31.2,2.81,1.82,6.17,2.88,9.78,2.88,9.95,0,18.02-8.06,18.02-18.01,0-6.11-3.04-11.51-7.7-14.76-.43-.29-.86-.57-1.29-.83-26.13-16.46-59.52-20.61-90.3-8.24-24.68,9.92-44.02,28.86-54.47,53.33-10.44,24.46-10.73,51.53-.81,76.22,9.92,24.68,28.86,44.02,53.33,54.47,12.56,5.36,25.81,8.05,39.07,8.05,2.72,0,5.45-.11,8.16-.34l35.41,88.14c5.86,14.57,22.57,21.71,37.14,15.85,14.57-5.86,21.71-22.57,15.85-37.14Z"/><path class="c" d="m253.48,197.04h0c0,4.98-4.07,9.05-9.05,9.05h-7.86c-2.39,0-4.33,1.94-4.33,4.33v7.86c0,4.98-4.07,9.05-9.05,9.05h0c-4.98,0-9.05-4.07-9.05-9.05v-7.86c0-2.39-1.94-4.33-4.33-4.33h-7.86c-4.98,0-9.05-4.07-9.05-9.05h0c0-4.98,4.07-9.05,9.05-9.05h7.86c2.39,0,4.33-1.94,4.33-4.33v-7.86c0-4.98,4.07-9.05,9.05-9.05h0c4.98,0,9.05,4.07,9.05,9.05v7.86c0,2.39,1.94,4.33,4.33,4.33h7.86c4.98,0,9.05,4.07,9.05,9.05Z"/><path class="c" d="m375.99,197.04h0c0,8.23-6.73,14.96-14.96,14.96h-13c-3.95,0-7.16,3.2-7.16,7.16v13c0,8.23-6.73,14.96-14.96,14.96h0c-8.23,0-14.96-6.73-14.96-14.96v-13c0-3.95-3.2-7.16-7.16-7.16h-13c-8.23,0-14.96-6.73-14.96-14.96h0c0-8.23,6.73-14.96,14.96-14.96h13c3.95,0,7.16-3.2,7.16-7.16v-13c0-8.23,6.73-14.96,14.96-14.96h0c8.23,0,14.96,6.73,14.96,14.96v13c0,3.95,3.2,7.16,7.16,7.16h13c8.23,0,14.96,6.73,14.96,14.96Z"/></svg>